<svg xmlns="http://www.w3.org/2000/svg" width="35.34" height="54.9"><path data-name="" d="M32.66 27.8a17.508 17.508 0 0 1 2.7 9.5 17.686 17.686 0 0 1-35.37 0 17.508 17.508 0 0 1 2.7-9.5 16.854 16.854 0 0 1 7.14-6.3C6.55 13.6 4.91 9 4.91 7.6V0h25.53v7.6c0 1.1-1.64 5.7-4.92 13.9a16.913 16.913 0 0 1 7.14 6.3zm-21.07-7.1a18.553 18.553 0 0 1 6.08-1.1 17.014 17.014 0 0 1 5.98 1.1c3.2-7.5 4.8-11.9 4.8-13.1V2h-9.84v13.4h-1.99V2H6.9v5.6c0 1 1.56 5.3 4.69 13.1zm21.77 16.6a15.569 15.569 0 1 0-4.62 11.1 15.263 15.263 0 0 0 4.62-11.1zm-3.86 0a11.864 11.864 0 1 1-3.45-8.4 11.369 11.369 0 0 1 3.45 8.4zm-1.99 0a9.378 9.378 0 0 0-2.87-6.9 9.609 9.609 0 1 0 2.87 6.9z" fill="#38c695" fill-rule="evenodd"/></svg>