<svg xmlns="http://www.w3.org/2000/svg" width="30.03" height="25.3"><path data-name="" d="M29.91 3.8a3.132 3.132 0 0 1-.88 1.3 3.846 3.846 0 0 0-1.26 1.4 8.108 8.108 0 0 0-.58 1.5q-.15.75-.27 1.8a17.209 17.209 0 0 1-4.3 9.7A17.164 17.164 0 0 1 .91 22.9a.67.67 0 0 0-.32-.2.662.662 0 0 1-.33-.2.864.864 0 0 1-.2-.2c-.1-.2-.09-.3.03-.4a.294.294 0 0 1 .2-.3.367.367 0 0 1 .3-.1.539.539 0 0 1 .35.1h.32a11.069 11.069 0 0 0 5.39-.5.852.852 0 0 1 1.06.3c.07.4-.16.6-.71.8-.35.1-.87.2-1.55.4s-1.22.3-1.61.4a15.019 15.019 0 0 0 6.39 1.2 15.485 15.485 0 0 0 10.54-4.4 17.4 17.4 0 0 0 5.04-9.8 4.255 4.255 0 0 0 .12-.8V8q0-.15.03-.6a1.8 1.8 0 0 1 .11-.6 4.745 4.745 0 0 0 .21-.5 1.14 1.14 0 0 1 .32-.5 3.318 3.318 0 0 0 .5-.4c.2-.1.41-.2.64-.3-.07-.1-.15-.1-.23-.2l-.12-.1a4.022 4.022 0 0 1-.55.1 1.661 1.661 0 0 1-.65.1.493.493 0 0 1-.44-.4.458.458 0 0 1-.03-.5 1.675 1.675 0 0 1 .5-.4 1.142 1.142 0 0 1 .47-.3l.35-.6-.17-.1a3.838 3.838 0 0 1-3.52-.6 4.759 4.759 0 0 0-5.24-.3 5.128 5.128 0 0 0-2.85 4.6 4.318 4.318 0 0 1-.41 2.1c-.19.2-.91.1-2.16-.1a19.111 19.111 0 0 1-9.85-5.3 3.668 3.668 0 0 0-.44 2.8 6.462 6.462 0 0 0 1.5 3c.07 0 .23.2.47.3a.751.751 0 0 1 .41.3 1.888 1.888 0 0 1 0 .6.674.674 0 0 1-.44.4 2.058 2.058 0 0 1-.71-.1 1.715 1.715 0 0 0-.61-.1 1.845 1.845 0 0 0-.65-.2 5.5 5.5 0 0 0 3.28 4.3l.47.1a1.378 1.378 0 0 1 .65.3.66.66 0 0 1 .06.5q-.12.45-1.53.6l-.58.1a4.941 4.941 0 0 0 3.57 2.8h.41a.716.716 0 0 1 .35.1 2 2 0 0 1 .41.1.429.429 0 0 1 .24.2.481.481 0 0 1 .06.4c-.08.5-.49.6-1.23.4a6.292 6.292 0 0 1-4.4-2.9.622.622 0 0 1-.23-.3 4.057 4.057 0 0 1-.24-.4 1.522 1.522 0 0 0-.17-.3 1.168 1.168 0 0 1-.12-.4 1.9 1.9 0 0 1 .03-.4 1.057 1.057 0 0 1 .15-.5 2.073 2.073 0 0 1 .02-.4 1.039 1.039 0 0 0-.26-.3l-.23-.1a7 7 0 0 1-1.88-3.8l-.06-.3a2.127 2.127 0 0 1-.06-.4v-.3a.178.178 0 0 1 .09-.2.346.346 0 0 1 .27-.2 2.6 2.6 0 0 1 .46-.2q.54 0 .12-.6a.156.156 0 0 1-.12-.1 6.8 6.8 0 0 1-.23-5.5 1.379 1.379 0 0 1 .73-1.1 1.764 1.764 0 0 1 1.09.7 16.977 16.977 0 0 0 8.96 5.3 2.441 2.441 0 0 0 1.23 0 1.417 1.417 0 0 0 .41-1.1A7.246 7.246 0 0 1 17.55.8a5.509 5.509 0 0 1 5.8 0 3.945 3.945 0 0 0 4.63 0 1.07 1.07 0 0 1 1.11 0 .97.97 0 0 1-.11 1.1 3.679 3.679 0 0 1-.24.6 3.181 3.181 0 0 0-.23.5.5.5 0 0 0 .64.1.342.342 0 0 1 .24-.1c.62 0 .8.3.52.8z" fill="#fff" fill-rule="evenodd"/></svg>