<svg xmlns="http://www.w3.org/2000/svg" width="40" height="40"><path data-name="" d="M39.989 20A20.006 20.006 0 1 1 34.13 5.86 19.268 19.268 0 0 1 39.989 20zm-1.641 0a18.272 18.272 0 1 0-5.351 13.008A17.71 17.71 0 0 0 38.348 20zm-20.9-2.5a16.636 16.636 0 0 0 3.9 1.758 11.482 11.482 0 0 1 3.945 2.148 4.895 4.895 0 0 1 1.875 3.75 4.986 4.986 0 0 1-1.562 3.71 7.1 7.1 0 0 1-4.3 1.836v2.657h-1.8v-2.891q-4.219-.156-6.328-2.5l1.328-1.484.625.547a7.555 7.555 0 0 0 2.148 1.211 7.942 7.942 0 0 0 3.008.586 5.211 5.211 0 0 0 3.242-.977 3.041 3.041 0 0 0 1.289-2.539 3.414 3.414 0 0 0-1.758-2.89 14.076 14.076 0 0 0-3.906-1.8 10.873 10.873 0 0 1-3.906-2.071A4.437 4.437 0 0 1 13.507 15a4.954 4.954 0 0 1 1.64-3.632 6.615 6.615 0 0 1 4.14-1.836v-2.89h1.875v2.89a7.723 7.723 0 0 1 5.312 1.953l-1.172 1.719-.624-.469a7.807 7.807 0 0 0-1.875-.938 7.1 7.1 0 0 0-2.5-.469 5.208 5.208 0 0 0-3.32 1.016 3.078 3.078 0 0 0-1.289 2.5 3.135 3.135 0 0 0 1.758 2.656z" fill="#38c695" fill-rule="evenodd"/></svg>